<svg xmlns="http://www.w3.org/2000/svg" xmlns:xlink="http://www.w3.org/1999/xlink" viewBox="0 0 622 373"><defs><style>.cls-1,.cls-2,.cls-6,.cls-7{opacity:0.72;}.cls-1{fill:url(#linear-gradient);}.cls-2,.cls-6,.cls-7{fill:none;stroke-miterlimit:10;}.cls-2{stroke:#00a292;stroke-width:12px;}.cls-3{fill:#757575;}.cls-4{fill:#f6a8ff;}.cls-5{fill:#a8b5ff;}.cls-6,.cls-7{stroke:#000;}.cls-6{stroke-width:3px;}</style><linearGradient id="linear-gradient" x1="264.14" y1="117.78" x2="266.25" y2="376.08" gradientUnits="userSpaceOnUse"><stop offset="0" stop-color="#73ffff"/><stop offset="0.35" stop-color="#72fdfd"/><stop offset="0.49" stop-color="#70f6f6"/><stop offset="0.59" stop-color="#6beaea"/><stop offset="0.68" stop-color="#65d8d8"/><stop offset="0.75" stop-color="#5cc2c2"/><stop offset="0.82" stop-color="#52a6a6"/><stop offset="0.88" stop-color="#468585"/><stop offset="0.93" stop-color="#375e5e"/><stop offset="0.98" stop-color="#283434"/><stop offset="1" stop-color="#212121"/></linearGradient></defs><g id="UI"><path class="cls-1" d="M452.37,85.45c-4.12.14-8-.48-12.14.41-7,1.51-14.53,3.55-21.7,4.06a21.93,21.93,0,0,1-9.35-1.47c-4-1.45-4.47-2.63-7.83-1.52-7.09,2.32-11.31,4.95-19.11,4.1-7.58-.82-14.15,3.67-21.75,2.52-5.72-.87-11-6.67-16.4-6.38-3.58.19-7,2.4-10.56,3a26,26,0,0,1-8.88-.38c-4.63-.84-7.87-1.25-12.48-.13a37.31,37.31,0,0,1-11.36,1.44c-6.14-.42-11.39-5.28-17.32-5.08-2.7.09-5.1,1-7.86.86-3.42-.22-6.16-2-9.48-2.58-3.61-.61-7.22.31-10.86-.12s-7.1-1.69-10.81-1.31c-7.33.74-14,5-21.36,6.06-7.57,1.06-15.23,0-22.76,1.35a46.34,46.34,0,0,1-18,0c-7-1.3-12,.78-18.75,1.57-5.72.67-10.63-1.77-14.68-5.73-5.73-5.61-8.51-10.3-17.39-8.7-5.49,1-10.26,1.29-15.45-1.12-6-2.79-10.28-8.33-17.44-6.19-6,1.78-11.1,6.27-16.68,9.23C56.7,108.48,41.83,144,41.83,182.28,41.83,281.56,141.6,362,264.67,362s222.84-80.48,222.84-179.76C487.51,146.17,474.75,113.16,452.37,85.45Z"/><ellipse class="cls-2" cx="264.4" cy="56.54" rx="152.71" ry="17.27"/><path class="cls-2" d="M104.34,62.82C90.63,48.23,175.75,39.28,264.4,39.28s162.06,8.55,162.06,20.93c0,9.53-73,19.88-161.62,19.88S112.88,71.92,104.34,62.82Z"/><path class="cls-3" d="M45.87,146.74,18.85,175C1.63,200.6-4,231.79,3.47,260.66h0a99.28,99.28,0,0,0,39.31,56.73l7.92,5.55-2.87,23.75L102,373.22l13.11-19.86L79,338.07l4-9.35,37.07,14.17,1.75-11.26L90.37,315.12l4.44-9.51,31,9.69,2.59-17.22-42.48-8.3.54-37.37-19.35,1.38-8.29,45.89-6.12-6.82a84.73,84.73,0,0,1-19.14-36.21l-2.31-9.3a87.24,87.24,0,0,1-2.39-26.21h0c1-16.23,3.41-32.34,12.94-44.59l-.29,0Z"/><path class="cls-3" d="M483.42,146.74l11.52-3.67a90.09,90.09,0,0,0,34.91-21.27l8-7.66L562.3,90.86l10,23.71,50.23-3.39L622.19,49l-31.88-3,5.48-37.25L580.33.26,572.6,49.37,545.77,68.9A104.18,104.18,0,0,0,528.6,84.75h0c-10.05,11.57-21.79,20.33-34.5,25.75l-16.48,7"/><path class="cls-4" d="M224.09,117.08a37,37,0,0,1-27.36,3.72c-3.65-.94-8-2.29-10.81.23-4.13,3.7-.06,10.59,4.5,13.73-5.6,2.08-11.8,1.07-17.74,1.57s-12.62,3.47-13.85,9.39c2.69.79,5.49,1.65,7.49,3.63s2.87,5.46,1.12,7.68c-1,1.31-2.68,1.89-4.2,2.53a34.68,34.68,0,0,0-16.66,14.81c-.83,1.46-1.57,3.24-.91,4.79,1.28,3,5.71,2,8.64,3.26,4,1.78,4.21,7.75,1.9,11.48s-6.23,6.06-9.33,9.15-5.45,7.87-3.53,11.82c4.53,3.46,13.68,0,15.08,5.57a7.14,7.14,0,0,1-1,4.87c-3,6-7.75,11-10,17.35s-.67,14.91,5.53,17.22c6.79,2.53,16.69-3,20.47,3.25a8.12,8.12,0,0,1,1,4.25c-.06,6.88-5.49,13-4.77,19.88s7.73,11.62,14.49,11.74,13.07-3.39,18.41-7.59c-1.16,9.43-.28,21.06,8,25.46,5.7,3,13,1.13,18-2.89s8.4-9.81,11.62-15.46c4.35,9,10.95,19.47,20.84,18.85,8.47-.53,13.93-9,18-16.6,2.6,4.52,5.25,9.11,9.07,12.62s9,5.85,14.11,4.91,9.24-5.07,11.57-9.8,3.16-10,4-15.26c8.19.18,15.81,9.16,23.25,5.66,5.36-2.52,6.24-9.74,6.37-15.73,6.57-.39,11,8.45,17.59,8,4.11-.26,7.12-4.2,8.27-8.2s1-8.28,1.94-12.34c.31-1.36.85-2.84,2.09-3.46,1.57-.77,3.38.19,5.09.47,5.82.93,9.68-5.79,11.75-11.39,3-7.94,5.09-18.73-1.91-23.39,6.25,2.41,14.1-1.76,15.72-8.34s-3.41-14-10-14.83L408,199.94c3-2.92,6.24-6.53,5.69-10.71s-4.68-6.82-8.67-7.76-8.24-.76-12.14-2.07l9.34-15.24a4.28,4.28,0,0,0,.92-3.17c-.4-1.49-2.15-2-3.64-2.3a77.27,77.27,0,0,0-24.75-.35c-3.2-8.16,3.61-19.26-2.55-25.42-2.86-2.86-7.54-3.07-11.28-1.6s-6.76,4.33-9.69,7.12a98,98,0,0,0-7.57-23.4c-1.06-2.26-2.38-4.65-4.66-5.64-3.79-1.64-7.93,1.44-10.58,4.65s-5.35,7.08-9.44,7.64c-9.64,1.32-13.45-16.07-23.17-15.75-5.87.18-9.15,6.68-11.75,12-1,2.08-2.75,4.44-5,4a4.91,4.91,0,0,1-2.4-1.69c-4.59-5.07-8.75-12.51-15.52-12.06L257.39,121a6.26,6.26,0,0,1-1.78,3.34c-3.1,2.4-6.58-2.19-9-5.3C240.25,110.73,225.48,111.78,224.09,117.08Z"/><ellipse class="cls-5" cx="274.87" cy="213.84" rx="104.41" ry="77.6"/><path class="cls-6" d="M214.15,219.48s18.66-32.51,39.62-2.77"/><path class="cls-6" d="M284.27,211.83s18.66-32.51,39.62-2.77"/><path class="cls-6" d="M274.87,233.54s-18.65,32.5-39.61,2.77"/><path class="cls-6" d="M314.48,230.63s-18.65,32.5-39.61,2.76"/><path class="cls-7" d="M498,109.36c6.75,8.92,8,10.54,8.64,21.87,0,.49-1.24,7-.77,7"/><path class="cls-7" d="M27,304.72a35.31,35.31,0,0,1,17.38-19.43"/><path class="cls-7" d="M32.64,255.36A47.94,47.94,0,0,0,7.23,272a1.08,1.08,0,0,0-.32,1c.14.34.81.17.65-.16"/><path class="cls-7" d="M29.34,219.45c-8.15,2.3-15.1,5.25-21.83,10.54-1.69,1.33-3.15,2.72-4.73,4.22-.54.51-4.35,4-1.85,1.91"/><path class="cls-7" d="M32.64,192.25A55.81,55.81,0,0,0,5.7,203c-.41.31-.31-.91,0-.53"/><path class="cls-7" d="M41,177.43a18.09,18.09,0,0,0-21-3.73"/><path class="cls-7" d="M519.35,94.68c6.78,7.92,9.53,16.7,9.39,27.29l1.13-1.27"/><path class="cls-7" d="M539.62,73.5c6.4,10.31,7.92,20.35,6.74,32.56l0-1.74"/><path class="cls-7" d="M563.4,56.94a58,58,0,0,1-.2,34.53"/><path class="cls-7" d="M621.12,64.23,591,68c-.39,0-.88,0-1.08-.31s.5-.79.56-.38"/><path class="cls-7" d="M621.46,86.59,593.11,92"/></g></svg>