<svg id="Layer_1" data-name="Layer 1" xmlns="http://www.w3.org/2000/svg" viewBox="0 0 115.91 60.59"><defs><style>.cls-1{fill:#2b2b2b;}</style></defs><path class="cls-1" d="M115.07,13.53l-3.16-3.34a28.72,28.72,0,0,0-13-7.88l-3.12-.89A22.33,22.33,0,0,0,85.62,1L84,1.26A35,35,0,0,0,73,5.34l-2,1.13A117.23,117.23,0,0,0,52.92,19.39L28.31,40.72A23.35,23.35,0,0,1,13,46.42a1,1,0,0,1-.72-.31L9.15,42.74a.79.79,0,0,0-.58-.25H1.06a.43.43,0,0,0-.29.74L17.23,59.08a1.64,1.64,0,0,0,1.13.46h7.73a.43.43,0,0,0,.29-.74l-9.26-8.9a0,0,0,0,1,0-.06l8.15.74a12.85,12.85,0,0,0,6.33-1h0a12.88,12.88,0,0,0,5-3.87l.72-.92a.27.27,0,0,1,.34-.07l12.51,7.59a22.86,22.86,0,0,0,7.06,2.82l.65.15a23.44,23.44,0,0,0,8,.33l.45-.06a20.5,20.5,0,0,0,6.44-2,22.55,22.55,0,0,0,6.6-5,12.58,12.58,0,0,0,3-6.18V42.3a14.94,14.94,0,0,0-.43-7.12l-.56-1.79a14.92,14.92,0,0,0-3.14-5.51l-3-3.3A15.63,15.63,0,0,0,74,23.24L67.24,17.4a.11.11,0,0,1,0-.17l9.8-7.63a28.33,28.33,0,0,1,10.6-5.17,9.76,9.76,0,0,1,1.26-.23c.56,0,1.33,0,2.41-.08a11.48,11.48,0,0,1,11.61,8.69l0,.17a1.9,1.9,0,0,0,1.84,1.45h9.86A.53.53,0,0,0,115.07,13.53ZM71,27.15l1.67,2.59a14.92,14.92,0,0,1,.75,14.9l-.15.29a12.86,12.86,0,0,1-2.49,3.37l-.62.6A12.87,12.87,0,0,1,64,52.22l-.81.19a12.89,12.89,0,0,1-11.78-3.19l-8.77-8.28a.56.56,0,0,1,0-.83l20.93-19a.57.57,0,0,1,.77,0Z"/></svg>